<svg width="99" height="51" viewBox="0 0 99 51" fill="none" xmlns="http://www.w3.org/2000/svg">
<g clip-path="url(#clip0)">
<path d="M15.6057 28.9977C16.0195 28.9985 16.371 28.6954 16.4312 28.2857C16.4915 27.8763 16.242 27.4849 15.8457 27.3661C14.1243 26.8498 12.2551 24.9599 10.7159 22.1834C10.4929 21.7806 9.98596 21.6349 9.58316 21.8579C9.18036 22.0808 9.0347 22.5882 9.25766 22.9906C11.0076 26.1447 13.2324 28.3239 15.3656 28.9619C15.4433 28.9855 15.5243 28.9977 15.6057 28.9977Z" fill="white"/>
<path d="M24.2111 10.4795C24.7266 11.6403 24.9955 12.8955 25.0016 14.1658C25.0016 14.6259 25.3747 14.999 25.8349 14.999C26.2951 14.999 26.6682 14.6259 26.6682 14.1658C26.6625 12.6673 26.3464 11.1862 25.7401 9.81589C24.9679 8.00897 23.7367 6.43478 22.1686 5.24956C21.8004 4.9737 21.2783 5.04815 21.0021 5.41637C20.7258 5.78459 20.8007 6.30702 21.1685 6.58288C22.5055 7.59396 23.554 8.93745 24.2111 10.4795Z" fill="white"/>
<path d="M16.6688 4.99956C17.4285 5.00241 18.1824 5.13057 18.9005 5.37876C19.3363 5.52687 19.8099 5.29373 19.958 4.85797C20.1061 4.42221 19.873 3.94861 19.4372 3.8005C18.5462 3.49372 17.6112 3.33586 16.6688 3.33301C16.2087 3.33301 15.8356 3.70611 15.8356 4.16628C15.8356 4.62646 16.2087 4.99956 16.6688 4.99956Z" fill="white"/>
<path d="M32.5113 34.0352C30.7898 33.5185 28.9206 31.6286 27.3814 28.8521C27.1585 28.4493 26.6515 28.3036 26.2487 28.5266C25.8459 28.7495 25.7002 29.2569 25.9232 29.6597C27.6731 32.8134 29.8979 34.9926 32.0312 35.6306C32.318 35.7221 32.6317 35.6517 32.8518 35.4467C33.0719 35.2416 33.1643 34.9336 33.0939 34.6415C33.0235 34.3489 32.8006 34.117 32.5113 34.0352Z" fill="white"/>
<path d="M38.8341 11.9156C38.4659 11.6397 37.9439 11.7142 37.6676 12.0824C37.3913 12.4506 37.4662 12.973 37.834 13.2489C39.1694 14.2592 40.2179 15.6006 40.875 17.1402C41.3917 18.3027 41.6615 19.5599 41.6672 20.8318C41.6672 21.292 42.0403 21.6651 42.5004 21.6651C42.9606 21.6651 43.3337 21.292 43.3337 20.8318C43.328 19.3333 43.0119 17.8523 42.4056 16.4819C41.6334 14.675 40.4022 13.1008 38.8341 11.9156Z" fill="white"/>
<path d="M36.1027 10.4668C35.2117 10.16 34.2767 10.0021 33.3344 9.99927C32.8742 9.99927 32.5011 10.3724 32.5011 10.8325C32.5011 11.2927 32.8742 11.6658 33.3344 11.6658C34.094 11.6687 34.8479 11.7968 35.5661 12.045C36.0018 12.1931 36.4754 11.96 36.6235 11.5242C36.7716 11.0885 36.5385 10.6149 36.1027 10.4668Z" fill="white"/>
<path d="M33.323 6.6662H33.3096C31.6288 6.67393 29.9688 7.03564 28.4373 7.72773C26.2951 3.13048 21.7389 0.138744 16.6689 0C9.56693 0 3.33649 6.61941 3.33649 14.1657C3.33649 20.6927 7.81616 29.5646 13.7016 31.8911L13.3476 34.0276C13.3073 34.2693 13.3757 34.5162 13.5339 34.703C13.6918 34.8897 13.9245 34.9976 14.1691 34.9976H15.5126L14.9848 36.5807C14.4103 38.2892 14.663 40.1681 15.6692 41.6638L16.2881 42.5918C17.005 43.6603 17.1848 45.0013 16.7747 46.2211L15.8816 48.9024C15.7359 49.3398 15.9727 49.8118 16.4097 49.9575C16.8471 50.1027 17.3195 49.8663 17.4647 49.4289L18.3529 46.7468C18.9279 45.0384 18.6752 43.1594 17.669 41.6638L17.0497 40.7357C16.332 39.6672 16.1518 38.3262 16.5623 37.1064L17.269 34.9976H19.1687C19.4137 34.9976 19.646 34.8897 19.8043 34.703C19.9625 34.5162 20.0305 34.2693 19.9906 34.0276L19.6362 31.8927C20.6526 31.4846 21.601 30.9248 22.4493 30.2319C24.1993 33.7444 26.9607 37.2191 30.3654 38.5691L30.0131 40.6938C29.9728 40.9355 30.0412 41.1824 30.1994 41.3692C30.3573 41.5559 30.59 41.6638 30.8346 41.6638H32.1781L31.6504 43.2469C31.0758 44.9554 31.3285 46.8343 32.3347 48.33L32.9528 49.2564C33.0195 49.3565 33.0813 49.4599 33.1387 49.564C33.2848 49.8321 33.5659 49.9986 33.8711 49.9981C34.0102 49.9981 34.1469 49.9628 34.2686 49.8956C34.6726 49.6755 34.8219 49.1698 34.6018 48.7657C34.5184 48.6193 34.4354 48.4748 34.3402 48.3332L33.7213 47.4052C33.0032 46.3371 32.8234 44.9957 33.2335 43.7763L33.9345 41.6638H35.8342C36.0792 41.6638 36.3115 41.5559 36.4698 41.3692C36.628 41.1824 36.696 40.9355 36.6561 40.6938L36.3058 38.5841C38.6925 37.6524 40.9633 35.6115 42.889 32.606C45.1882 29.0849 46.4935 25.008 46.6668 20.8063C46.6493 13.2689 40.4172 6.6662 33.323 6.6662ZM5.00304 14.1657C5.00304 7.5068 10.4543 1.66655 16.6689 1.66655C21.1429 1.66655 25.3035 4.60539 27.2708 9.15667C27.9673 10.7353 28.3295 12.4405 28.3347 14.1657C28.3331 14.7788 28.2928 15.3908 28.2139 15.9991C28.1175 16.7265 27.9783 17.4479 27.7973 18.1595C26.8663 21.9817 24.9186 25.4808 22.1613 28.2862C21.1209 29.3229 19.8527 30.1017 18.4579 30.561C17.5888 30.8308 16.6697 30.9004 15.7697 30.7645C15.4666 30.7185 15.1675 30.6501 14.8742 30.5602C9.40703 28.9148 5.00304 20.2484 5.00304 14.1657ZM15.1525 33.331L15.3108 32.3753C15.36 32.3842 15.4084 32.3871 15.4572 32.3952C15.5065 32.4038 15.5789 32.4111 15.6399 32.4192C15.9764 32.4684 16.3157 32.4945 16.6559 32.4977H16.6823C17.0221 32.4949 17.361 32.4689 17.6975 32.4204C17.7581 32.4119 17.8199 32.4062 17.8806 32.396C17.9416 32.3863 17.9782 32.3854 18.0274 32.3761L18.1857 33.331H15.1525ZM34.8512 39.9972H31.818L31.9763 39.0415C32.0702 39.0582 32.1646 39.0663 32.2578 39.0797C32.3363 39.0907 32.4136 39.1021 32.4922 39.1115C32.7717 39.144 33.0528 39.1615 33.3344 39.1639H33.3572C33.8039 39.1627 34.2503 39.1224 34.6901 39.0439L34.8512 39.9972ZM41.4889 31.706C39.6084 34.6375 37.3425 36.5701 35.0787 37.2358C34.8166 37.3139 34.5497 37.3745 34.2796 37.4172L34.1677 37.4331C33.6123 37.512 33.0484 37.512 32.493 37.4331C32.423 37.4233 32.3555 37.4067 32.2863 37.394C32.0584 37.3554 31.8326 37.3041 31.6105 37.2407C28.2281 36.2723 25.4301 32.6462 23.7395 29.0747C23.7892 29.0247 23.8368 28.9681 23.8852 28.9173C23.9893 28.8078 24.0919 28.6963 24.1944 28.584C24.3161 28.4494 24.4365 28.3126 24.5561 28.1731C24.6574 28.0539 24.7567 27.933 24.856 27.8098C24.9728 27.6665 25.0875 27.5205 25.201 27.3715C25.2987 27.243 25.3955 27.1132 25.4907 26.9814C25.6022 26.83 25.7104 26.6762 25.8158 26.5208C25.9102 26.3841 26.0026 26.2465 26.0941 26.1041C26.1983 25.9459 26.3 25.7847 26.4009 25.6224C26.49 25.4792 26.5783 25.3347 26.6649 25.1883C26.7626 25.0215 26.8574 24.855 26.951 24.6882C27.034 24.5373 27.1174 24.3875 27.2008 24.2358C27.2915 24.069 27.379 23.894 27.4657 23.7227C27.5442 23.5677 27.6215 23.4135 27.6968 23.2577C27.7798 23.0819 27.8632 22.9049 27.9417 22.7283C28.0125 22.5709 28.0841 22.4142 28.1525 22.2559C28.229 22.0769 28.3014 21.8959 28.375 21.7152C28.4381 21.5561 28.5032 21.3978 28.5638 21.2383C28.633 21.0553 28.6973 20.8718 28.7624 20.6879C28.8189 20.5288 28.8763 20.3693 28.9292 20.2094C28.9906 20.0226 29.0464 19.8371 29.1033 19.6495C29.1513 19.4921 29.2006 19.3346 29.2457 19.1771C29.299 18.9879 29.3458 18.7987 29.3938 18.6087C29.4333 18.4545 29.4772 18.3003 29.5106 18.1461C29.5558 17.952 29.594 17.7604 29.6323 17.568C29.6624 17.4194 29.6957 17.2705 29.7222 17.1228C29.758 16.9214 29.7857 16.7229 29.815 16.5239C29.8349 16.3872 29.8597 16.2497 29.8764 16.1138C29.9041 15.8941 29.9216 15.6772 29.9399 15.4608C29.9496 15.3489 29.9639 15.2358 29.9716 15.1271C29.9923 14.8024 30.0037 14.4806 30.0037 14.1649C30.0037 13.7124 29.9773 13.2608 29.9329 12.8116C29.9179 12.6631 29.8914 12.5158 29.8723 12.3681C29.8324 12.0666 29.7889 11.7659 29.7299 11.4669C29.6957 11.2944 29.6522 11.1227 29.6115 10.951C29.5456 10.6759 29.4748 10.4025 29.393 10.1303C29.3397 9.95496 29.2824 9.78 29.2221 9.60586C29.1798 9.48176 29.1473 9.35604 29.1013 9.23357C30.4253 8.64035 31.8595 8.33316 33.3104 8.33275H33.3222C39.529 8.33275 44.988 14.16 45.0003 20.8087C44.8314 24.6907 43.6185 28.4555 41.4889 31.706Z" fill="white"/>
</g>
<g clip-path="url(#clip1)">
<path d="M64.6057 47.9977C65.0195 47.9985 65.371 47.6954 65.4312 47.2857C65.4915 46.8763 65.242 46.4849 64.8457 46.3661C63.1243 45.8498 61.2551 43.9599 59.7159 41.1834C59.4929 40.7806 58.986 40.6349 58.5832 40.8579C58.1804 41.0808 58.0347 41.5882 58.2577 41.9906C60.0076 45.1447 62.2324 47.3239 64.3656 47.9619C64.4433 47.9855 64.5243 47.9977 64.6057 47.9977Z" fill="white"/>
<path d="M73.2111 29.4795C73.7266 30.6403 73.9955 31.8955 74.0016 33.1658C74.0016 33.6259 74.3747 33.999 74.8349 33.999C75.2951 33.999 75.6682 33.6259 75.6682 33.1658C75.6625 31.6673 75.3464 30.1862 74.7401 28.8159C73.9679 27.009 72.7367 25.4348 71.1686 24.2496C70.8004 23.9737 70.2783 24.0482 70.0021 24.4164C69.7258 24.7846 69.8007 25.307 70.1685 25.5829C71.5055 26.594 72.554 27.9375 73.2111 29.4795Z" fill="white"/>
<path d="M65.6688 23.9996C66.4285 24.0024 67.1824 24.1306 67.9005 24.3788C68.3363 24.5269 68.8099 24.2937 68.958 23.858C69.1061 23.4222 68.873 22.9486 68.4372 22.8005C67.5462 22.4937 66.6112 22.3359 65.6688 22.333C65.2087 22.333 64.8356 22.7061 64.8356 23.1663C64.8356 23.6265 65.2087 23.9996 65.6688 23.9996Z" fill="white"/>
<path d="M81.5113 53.0352C79.7898 52.5185 77.9206 50.6286 76.3814 47.8521C76.1585 47.4493 75.6515 47.3036 75.2487 47.5266C74.8459 47.7495 74.7002 48.2569 74.9232 48.6597C76.6731 51.8134 78.8979 53.9926 81.0312 54.6306C81.318 54.7221 81.6317 54.6517 81.8518 54.4467C82.0719 54.2416 82.1643 53.9336 82.0939 53.6415C82.0235 53.3489 81.8006 53.117 81.5113 53.0352Z" fill="white"/>
<path d="M87.8341 30.9156C87.4659 30.6397 86.9439 30.7142 86.6676 31.0824C86.3913 31.4506 86.4662 31.973 86.834 32.2489C88.1694 33.2592 89.2179 34.6006 89.875 36.1402C90.3917 37.3027 90.6615 38.5599 90.6672 39.8318C90.6672 40.292 91.0403 40.6651 91.5004 40.6651C91.9606 40.6651 92.3337 40.292 92.3337 39.8318C92.328 38.3333 92.0119 36.8523 91.4056 35.4819C90.6334 33.675 89.4022 32.1008 87.8341 30.9156Z" fill="white"/>
<path d="M85.1027 29.4668C84.2117 29.16 83.2767 29.0021 82.3344 28.9993C81.8742 28.9993 81.5011 29.3724 81.5011 29.8325C81.5011 30.2927 81.8742 30.6658 82.3344 30.6658C83.094 30.6687 83.8479 30.7968 84.5661 31.045C85.0018 31.1931 85.4754 30.96 85.6235 30.5242C85.7716 30.0885 85.5385 29.6149 85.1027 29.4668Z" fill="white"/>
<path d="M82.323 25.6662H82.3096C80.6288 25.6739 78.9688 26.0356 77.4373 26.7277C75.2951 22.1305 70.7389 19.1387 65.6689 19C58.5669 19 52.3365 25.6194 52.3365 33.1657C52.3365 39.6927 56.8162 48.5646 62.7016 50.8911L62.3476 53.0276C62.3073 53.2693 62.3757 53.5162 62.5339 53.703C62.6918 53.8897 62.9245 53.9976 63.1691 53.9976H64.5126L63.9848 55.5807C63.4103 57.2892 63.663 59.1681 64.6692 60.6638L65.2881 61.5918C66.005 62.6603 66.1848 64.0013 65.7747 65.2211L64.8816 67.9024C64.7359 68.3398 64.9727 68.8118 65.4097 68.9575C65.8471 69.1027 66.3195 68.8663 66.4647 68.4289L67.3529 65.7468C67.9279 64.0384 67.6752 62.1594 66.669 60.6638L66.0497 59.7357C65.332 58.6672 65.1518 57.3262 65.5623 56.1064L66.269 53.9976H68.1687C68.4137 53.9976 68.646 53.8897 68.8043 53.703C68.9625 53.5162 69.0305 53.2693 68.9906 53.0276L68.6362 50.8927C69.6526 50.4846 70.601 49.9248 71.4493 49.2319C73.1993 52.7444 75.9607 56.2191 79.3654 57.5691L79.0131 59.6938C78.9728 59.9355 79.0412 60.1824 79.1994 60.3692C79.3573 60.5559 79.59 60.6638 79.8346 60.6638H81.1781L80.6504 62.2469C80.0758 63.9554 80.3285 65.8343 81.3347 67.33L81.9528 68.2564C82.0195 68.3565 82.0813 68.4599 82.1387 68.564C82.2848 68.8321 82.5659 68.9986 82.8711 68.9981C83.0102 68.9981 83.1469 68.9628 83.2686 68.8956C83.6726 68.6755 83.8219 68.1698 83.6018 67.7657C83.5184 67.6193 83.4354 67.4748 83.3402 67.3332L82.7213 66.4052C82.0032 65.3371 81.8234 63.9957 82.2335 62.7763L82.9345 60.6638H84.8342C85.0792 60.6638 85.3115 60.5559 85.4698 60.3692C85.628 60.1824 85.696 59.9355 85.6561 59.6938L85.3058 57.5841C87.6925 56.6524 89.9633 54.6115 91.889 51.606C94.1882 48.0849 95.4935 44.008 95.6668 39.8063C95.6493 32.2689 89.4172 25.6662 82.323 25.6662ZM54.003 33.1657C54.003 26.5068 59.4543 20.6666 65.6689 20.6666C70.1429 20.6666 74.3035 23.6054 76.2708 28.1567C76.9673 29.7353 77.3295 31.4405 77.3347 33.1657C77.3331 33.7788 77.2928 34.3908 77.2139 34.9991C77.1175 35.7265 76.9783 36.4479 76.7973 37.1595C75.8663 40.9817 73.9186 44.4808 71.1613 47.2862C70.1209 48.3229 68.8527 49.1017 67.4579 49.561C66.5888 49.8308 65.6697 49.9004 64.7697 49.7645C64.4666 49.7185 64.1675 49.6501 63.8742 49.5602C58.407 47.9148 54.003 39.2484 54.003 33.1657ZM64.1525 52.331L64.3108 51.3753C64.36 51.3842 64.4084 51.3871 64.4572 51.3952C64.5065 51.4038 64.5789 51.4111 64.6399 51.4192C64.9764 51.4684 65.3157 51.4945 65.6559 51.4977H65.6823C66.0221 51.4949 66.361 51.4689 66.6975 51.4204C66.7581 51.4119 66.8199 51.4062 66.8806 51.396C66.9416 51.3863 66.9782 51.3854 67.0274 51.3761L67.1857 52.331H64.1525ZM83.8512 58.9972H80.818L80.9763 58.0415C81.0702 58.0582 81.1646 58.0663 81.2578 58.0797C81.3363 58.0907 81.4136 58.1021 81.4922 58.1115C81.7717 58.144 82.0528 58.1615 82.3344 58.1639H82.3572C82.8039 58.1627 83.2503 58.1224 83.6901 58.0439L83.8512 58.9972ZM90.4889 50.706C88.6084 53.6375 86.3425 55.5701 84.0787 56.2358C83.8166 56.3139 83.5497 56.3745 83.2796 56.4172L83.1677 56.4331C82.6123 56.512 82.0484 56.512 81.493 56.4331C81.423 56.4233 81.3555 56.4067 81.2863 56.394C81.0584 56.3554 80.8326 56.3041 80.6105 56.2407C77.2281 55.2723 74.4301 51.6462 72.7395 48.0747C72.7892 48.0247 72.8368 47.9681 72.8852 47.9173C72.9893 47.8078 73.0919 47.6963 73.1944 47.584C73.3161 47.4494 73.4365 47.3126 73.5561 47.1731C73.6574 47.0539 73.7567 46.933 73.856 46.8098C73.9728 46.6665 74.0875 46.5205 74.201 46.3715C74.2987 46.243 74.3955 46.1132 74.4907 45.9814C74.6022 45.83 74.7104 45.6762 74.8158 45.5208C74.9102 45.3841 75.0026 45.2465 75.0941 45.1041C75.1983 44.9459 75.3 44.7847 75.4009 44.6224C75.49 44.4792 75.5783 44.3347 75.6649 44.1883C75.7626 44.0215 75.8574 43.855 75.951 43.6882C76.034 43.5373 76.1174 43.3875 76.2008 43.2358C76.2915 43.069 76.379 42.894 76.4657 42.7227C76.5442 42.5677 76.6215 42.4135 76.6968 42.2577C76.7798 42.0819 76.8632 41.9049 76.9417 41.7283C77.0125 41.5709 77.0841 41.4142 77.1525 41.2559C77.229 41.0769 77.3014 40.8959 77.375 40.7152C77.4381 40.5561 77.5032 40.3978 77.5638 40.2383C77.633 40.0553 77.6973 39.8718 77.7624 39.6879C77.8189 39.5288 77.8763 39.3693 77.9292 39.2094C77.9906 39.0226 78.0464 38.8371 78.1033 38.6495C78.1513 38.4921 78.2006 38.3346 78.2457 38.1771C78.299 37.9879 78.3458 37.7987 78.3938 37.6087C78.4333 37.4545 78.4772 37.3003 78.5106 37.1461C78.5558 36.952 78.594 36.7604 78.6323 36.568C78.6624 36.4194 78.6957 36.2705 78.7222 36.1228C78.758 35.9214 78.7857 35.7229 78.815 35.5239C78.8349 35.3872 78.8597 35.2497 78.8764 35.1138C78.9041 34.8941 78.9216 34.6772 78.9399 34.4608C78.9496 34.3489 78.9639 34.2358 78.9716 34.1271C78.9923 33.8024 79.0037 33.4806 79.0037 33.1649C79.0037 32.7124 78.9773 32.2608 78.9329 31.8116C78.9179 31.6631 78.8914 31.5158 78.8723 31.3681C78.8324 31.0666 78.7889 30.7659 78.7299 30.4669C78.6957 30.2944 78.6522 30.1227 78.6115 29.951C78.5456 29.6759 78.4748 29.4025 78.393 29.1303C78.3397 28.955 78.2824 28.78 78.2221 28.6059C78.1798 28.4818 78.1473 28.356 78.1013 28.2336C79.4253 27.6403 80.8595 27.3332 82.3104 27.3328H82.3222C88.529 27.3328 93.988 33.16 94.0003 39.8087C93.8314 43.6907 92.6185 47.4555 90.4889 50.706Z" fill="white"/>
</g>
<defs>
<clipPath id="clip0">
<rect width="50" height="50" fill="white"/>
</clipPath>
<clipPath id="clip1">
<rect width="50" height="50" fill="white" transform="translate(49 19)"/>
</clipPath>
</defs>
</svg>
