<svg width="99" height="50" viewBox="0 0 99 50" fill="none" xmlns="http://www.w3.org/2000/svg">
<g clip-path="url(#clip0)">
<path d="M83.3943 28.9977C82.9805 28.9985 82.629 28.6954 82.5688 28.2857C82.5085 27.8763 82.758 27.4849 83.1543 27.3661C84.8757 26.8498 86.7449 24.9599 88.2841 22.1834C88.5071 21.7806 89.014 21.6349 89.4168 21.8579C89.8196 22.0808 89.9653 22.5882 89.7423 22.9906C87.9924 26.1447 85.7676 28.3239 83.6344 28.9619C83.5567 28.9855 83.4757 28.9977 83.3943 28.9977Z" fill="white"/>
<path d="M74.7889 10.4795C74.2734 11.6403 74.0045 12.8955 73.9984 14.1658C73.9984 14.6259 73.6253 14.999 73.1651 14.999C72.7049 14.999 72.3318 14.6259 72.3318 14.1658C72.3375 12.6673 72.6536 11.1862 73.2599 9.81589C74.0321 8.00897 75.2633 6.43478 76.8314 5.24956C77.1996 4.9737 77.7217 5.04815 77.9979 5.41637C78.2742 5.78459 78.1993 6.30702 77.8315 6.58288C76.4945 7.59396 75.446 8.93745 74.7889 10.4795Z" fill="white"/>
<path d="M82.3312 4.99956C81.5715 5.00241 80.8176 5.13057 80.0995 5.37876C79.6637 5.52687 79.1901 5.29373 79.042 4.85797C78.8939 4.42221 79.127 3.94861 79.5628 3.8005C80.4538 3.49372 81.3888 3.33586 82.3312 3.33301C82.7913 3.33301 83.1644 3.70611 83.1644 4.16628C83.1644 4.62646 82.7913 4.99956 82.3312 4.99956Z" fill="white"/>
<path d="M66.4887 34.0352C68.2102 33.5185 70.0794 31.6286 71.6186 28.8521C71.8415 28.4493 72.3485 28.3036 72.7513 28.5266C73.1541 28.7495 73.2998 29.2569 73.0768 29.6597C71.3269 32.8134 69.1021 34.9926 66.9688 35.6306C66.682 35.7221 66.3683 35.6517 66.1482 35.4467C65.9281 35.2416 65.8357 34.9336 65.9061 34.6415C65.9765 34.3489 66.1994 34.117 66.4887 34.0352Z" fill="white"/>
<path d="M60.1659 11.9156C60.5341 11.6397 61.0561 11.7142 61.3324 12.0824C61.6087 12.4506 61.5338 12.973 61.166 13.2489C59.8306 14.2592 58.7821 15.6006 58.125 17.1402C57.6083 18.3027 57.3385 19.5599 57.3328 20.8318C57.3328 21.292 56.9597 21.6651 56.4996 21.6651C56.0394 21.6651 55.6663 21.292 55.6663 20.8318C55.672 19.3333 55.9881 17.8523 56.5944 16.4819C57.3666 14.675 58.5978 13.1008 60.1659 11.9156Z" fill="white"/>
<path d="M62.8973 10.4668C63.7883 10.16 64.7233 10.0021 65.6656 9.99927C66.1258 9.99927 66.4989 10.3724 66.4989 10.8325C66.4989 11.2927 66.1258 11.6658 65.6656 11.6658C64.906 11.6687 64.1521 11.7968 63.4339 12.045C62.9982 12.1931 62.5246 11.96 62.3765 11.5242C62.2284 11.0885 62.4615 10.6149 62.8973 10.4668Z" fill="white"/>
<path d="M65.677 6.6662H65.6904C67.3712 6.67393 69.0312 7.03564 70.5627 7.72773C72.7049 3.13048 77.2611 0.138744 82.3311 0C89.4331 0 95.6635 6.61941 95.6635 14.1657C95.6635 20.6927 91.1838 29.5646 85.2984 31.8911L85.6524 34.0276C85.6927 34.2693 85.6243 34.5162 85.4661 34.703C85.3082 34.8897 85.0755 34.9976 84.8309 34.9976H83.4874L84.0152 36.5807C84.5897 38.2892 84.337 40.1681 83.3308 41.6638L82.7119 42.5918C81.995 43.6603 81.8152 45.0013 82.2253 46.2211L83.1184 48.9024C83.2641 49.3398 83.0273 49.8118 82.5903 49.9575C82.1529 50.1027 81.6805 49.8663 81.5353 49.4289L80.6471 46.7468C80.0721 45.0384 80.3248 43.1594 81.331 41.6638L81.9503 40.7357C82.668 39.6672 82.8482 38.3262 82.4377 37.1064L81.731 34.9976H79.8313C79.5863 34.9976 79.354 34.8897 79.1957 34.703C79.0375 34.5162 78.9695 34.2693 79.0094 34.0276L79.3638 31.8927C78.3474 31.4846 77.399 30.9248 76.5507 30.2319C74.8007 33.7444 72.0393 37.2191 68.6346 38.5691L68.9869 40.6938C69.0272 40.9355 68.9588 41.1824 68.8006 41.3692C68.6427 41.5559 68.41 41.6638 68.1654 41.6638H66.8219L67.3496 43.2469C67.9242 44.9554 67.6715 46.8343 66.6653 48.33L66.0472 49.2564C65.9805 49.3565 65.9187 49.4599 65.8613 49.564C65.7152 49.8321 65.4341 49.9986 65.1289 49.9981C64.9898 49.9981 64.8531 49.9628 64.7314 49.8956C64.3274 49.6755 64.1781 49.1698 64.3982 48.7657C64.4816 48.6193 64.5646 48.4748 64.6598 48.3332L65.2787 47.4052C65.9968 46.3371 66.1766 44.9957 65.7665 43.7763L65.0655 41.6638H63.1658C62.9208 41.6638 62.6885 41.5559 62.5302 41.3692C62.372 41.1824 62.304 40.9355 62.3439 40.6938L62.6942 38.5841C60.3075 37.6524 58.0367 35.6115 56.111 32.606C53.8118 29.0849 52.5065 25.008 52.3332 20.8063C52.3507 13.2689 58.5828 6.6662 65.677 6.6662ZM93.997 14.1657C93.997 7.5068 88.5457 1.66655 82.3311 1.66655C77.8571 1.66655 73.6965 4.60539 71.7292 9.15667C71.0327 10.7353 70.6705 12.4405 70.6653 14.1657C70.6669 14.7788 70.7072 15.3908 70.7861 15.9991C70.8825 16.7265 71.0217 17.4479 71.2027 18.1595C72.1337 21.9817 74.0814 25.4808 76.8387 28.2862C77.8791 29.3229 79.1473 30.1017 80.5421 30.561C81.4112 30.8308 82.3303 30.9004 83.2303 30.7645C83.5334 30.7185 83.8325 30.6501 84.1258 30.5602C89.593 28.9148 93.997 20.2484 93.997 14.1657ZM83.8475 33.331L83.6892 32.3753C83.64 32.3842 83.5916 32.3871 83.5428 32.3952C83.4935 32.4038 83.4211 32.4111 83.3601 32.4192C83.0236 32.4684 82.6843 32.4945 82.3441 32.4977H82.3177C81.9779 32.4949 81.639 32.4689 81.3025 32.4204C81.2419 32.4119 81.1801 32.4062 81.1194 32.396C81.0584 32.3863 81.0218 32.3854 80.9726 32.3761L80.8143 33.331H83.8475ZM64.1488 39.9972H67.182L67.0237 39.0415C66.9298 39.0582 66.8354 39.0663 66.7422 39.0797C66.6637 39.0907 66.5864 39.1021 66.5078 39.1115C66.2283 39.144 65.9472 39.1615 65.6656 39.1639H65.6428C65.1961 39.1627 64.7497 39.1224 64.3099 39.0439L64.1488 39.9972ZM57.5111 31.706C59.3916 34.6375 61.6575 36.5701 63.9213 37.2358C64.1834 37.3139 64.4503 37.3745 64.7204 37.4172L64.8323 37.4331C65.3877 37.512 65.9516 37.512 66.507 37.4331C66.577 37.4233 66.6445 37.4067 66.7137 37.394C66.9416 37.3554 67.1674 37.3041 67.3895 37.2407C70.7719 36.2723 73.5699 32.6462 75.2605 29.0747C75.2108 29.0247 75.1632 28.9681 75.1148 28.9173C75.0107 28.8078 74.9081 28.6963 74.8056 28.584C74.6839 28.4494 74.5635 28.3126 74.4439 28.1731C74.3426 28.0539 74.2433 27.933 74.144 27.8098C74.0272 27.6665 73.9125 27.5205 73.799 27.3715C73.7013 27.243 73.6045 27.1132 73.5093 26.9814C73.3978 26.83 73.2896 26.6762 73.1842 26.5208C73.0898 26.3841 72.9974 26.2465 72.9059 26.1041C72.8017 25.9459 72.7 25.7847 72.5991 25.6224C72.51 25.4792 72.4217 25.3347 72.3351 25.1883C72.2374 25.0215 72.1426 24.855 72.049 24.6882C71.966 24.5373 71.8826 24.3875 71.7992 24.2358C71.7085 24.069 71.621 23.894 71.5343 23.7227C71.4558 23.5677 71.3785 23.4135 71.3032 23.2577C71.2202 23.0819 71.1368 22.9049 71.0583 22.7283C70.9875 22.5709 70.9159 22.4142 70.8475 22.2559C70.771 22.0769 70.6986 21.8959 70.625 21.7152C70.5619 21.5561 70.4968 21.3978 70.4362 21.2383C70.367 21.0553 70.3027 20.8718 70.2376 20.6879C70.1811 20.5288 70.1237 20.3693 70.0708 20.2094C70.0094 20.0226 69.9536 19.8371 69.8967 19.6495C69.8487 19.4921 69.7994 19.3346 69.7543 19.1771C69.701 18.9879 69.6542 18.7987 69.6062 18.6087C69.5667 18.4545 69.5228 18.3003 69.4894 18.1461C69.4442 17.952 69.406 17.7604 69.3677 17.568C69.3376 17.4194 69.3043 17.2705 69.2778 17.1228C69.242 16.9214 69.2143 16.7229 69.185 16.5239C69.1651 16.3872 69.1403 16.2497 69.1236 16.1138C69.0959 15.8941 69.0784 15.6772 69.0601 15.4608C69.0504 15.3489 69.0361 15.2358 69.0284 15.1271C69.0077 14.8024 68.9963 14.4806 68.9963 14.1649C68.9963 13.7124 69.0227 13.2608 69.0671 12.8116C69.0821 12.6631 69.1086 12.5158 69.1277 12.3681C69.1676 12.0666 69.2111 11.7659 69.2701 11.4669C69.3043 11.2944 69.3478 11.1227 69.3885 10.951C69.4544 10.6759 69.5252 10.4025 69.607 10.1303C69.6603 9.95496 69.7176 9.78 69.7779 9.60586C69.8202 9.48176 69.8527 9.35604 69.8987 9.23357C68.5747 8.64035 67.1405 8.33316 65.6896 8.33275H65.6778C59.471 8.33275 54.012 14.16 53.9997 20.8087C54.1686 24.6907 55.3815 28.4555 57.5111 31.706Z" fill="white"/>
</g>
<g clip-path="url(#clip1)">
<path d="M34.3943 47.9977C33.9805 47.9985 33.629 47.6954 33.5688 47.2857C33.5085 46.8763 33.758 46.4849 34.1543 46.3661C35.8757 45.8498 37.7449 43.9599 39.2841 41.1834C39.5071 40.7806 40.014 40.6349 40.4168 40.8579C40.8196 41.0808 40.9653 41.5882 40.7423 41.9906C38.9924 45.1447 36.7676 47.3239 34.6344 47.9619C34.5567 47.9855 34.4757 47.9977 34.3943 47.9977Z" fill="white"/>
<path d="M25.7889 29.4795C25.2734 30.6403 25.0045 31.8955 24.9984 33.1658C24.9984 33.6259 24.6253 33.999 24.1651 33.999C23.7049 33.999 23.3318 33.6259 23.3318 33.1658C23.3375 31.6673 23.6536 30.1862 24.2599 28.8159C25.0321 27.009 26.2633 25.4348 27.8314 24.2496C28.1996 23.9737 28.7217 24.0482 28.9979 24.4164C29.2742 24.7846 29.1993 25.307 28.8315 25.5829C27.4945 26.594 26.446 27.9375 25.7889 29.4795Z" fill="white"/>
<path d="M33.3312 23.9996C32.5715 24.0024 31.8176 24.1306 31.0995 24.3788C30.6637 24.5269 30.1901 24.2937 30.042 23.858C29.8939 23.4222 30.127 22.9486 30.5628 22.8005C31.4538 22.4937 32.3888 22.3359 33.3312 22.333C33.7913 22.333 34.1644 22.7061 34.1644 23.1663C34.1644 23.6265 33.7913 23.9996 33.3312 23.9996Z" fill="white"/>
<path d="M17.4887 53.0352C19.2102 52.5185 21.0794 50.6286 22.6186 47.8521C22.8415 47.4493 23.3485 47.3036 23.7513 47.5266C24.1541 47.7495 24.2998 48.2569 24.0768 48.6597C22.3269 51.8134 20.1021 53.9926 17.9688 54.6306C17.682 54.7221 17.3683 54.6517 17.1482 54.4467C16.9281 54.2416 16.8357 53.9336 16.9061 53.6415C16.9765 53.3489 17.1994 53.117 17.4887 53.0352Z" fill="white"/>
<path d="M11.166 30.9156C11.5342 30.6397 12.0562 30.7142 12.3325 31.0824C12.6087 31.4506 12.5339 31.973 12.166 32.2489C10.8307 33.2592 9.78218 34.6006 9.12508 36.1402C8.60835 37.3027 8.33859 38.5599 8.3329 39.8318C8.3329 40.292 7.9598 40.6651 7.49962 40.6651C7.03945 40.6651 6.66635 40.292 6.66635 39.8318C6.67204 38.3333 6.98818 36.8523 7.59442 35.4819C8.36667 33.675 9.59786 32.1008 11.166 30.9156Z" fill="white"/>
<path d="M13.8973 29.4668C14.7883 29.16 15.7233 29.0021 16.6656 28.9993C17.1258 28.9993 17.4989 29.3724 17.4989 29.8325C17.4989 30.2927 17.1258 30.6658 16.6656 30.6658C15.906 30.6687 15.1521 30.7968 14.4339 31.045C13.9982 31.1931 13.5246 30.96 13.3765 30.5242C13.2284 30.0885 13.4615 29.6149 13.8973 29.4668Z" fill="white"/>
<path d="M16.677 25.6662H16.6904C18.3712 25.6739 20.0312 26.0356 21.5627 26.7277C23.7049 22.1305 28.2611 19.1387 33.3311 19C40.4331 19 46.6635 25.6194 46.6635 33.1657C46.6635 39.6927 42.1838 48.5646 36.2984 50.8911L36.6524 53.0276C36.6927 53.2693 36.6243 53.5162 36.4661 53.703C36.3082 53.8897 36.0755 53.9976 35.8309 53.9976H34.4874L35.0152 55.5807C35.5897 57.2892 35.337 59.1681 34.3308 60.6638L33.7119 61.5918C32.995 62.6603 32.8152 64.0013 33.2253 65.2211L34.1184 67.9024C34.2641 68.3398 34.0273 68.8118 33.5903 68.9575C33.1529 69.1027 32.6805 68.8663 32.5353 68.4289L31.6471 65.7468C31.0721 64.0384 31.3248 62.1594 32.331 60.6638L32.9503 59.7357C33.668 58.6672 33.8482 57.3262 33.4377 56.1064L32.731 53.9976H30.8313C30.5863 53.9976 30.354 53.8897 30.1957 53.703C30.0375 53.5162 29.9695 53.2693 30.0094 53.0276L30.3638 50.8927C29.3474 50.4846 28.399 49.9248 27.5507 49.2319C25.8007 52.7444 23.0393 56.2191 19.6345 57.5691L19.9869 59.6938C20.0272 59.9355 19.9588 60.1824 19.8006 60.3692C19.6427 60.5559 19.41 60.6638 19.1654 60.6638H17.8219L18.3496 62.2469C18.9241 63.9554 18.6715 65.8343 17.6653 67.33L17.0472 68.2564C16.9805 68.3565 16.9187 68.4599 16.8613 68.564C16.7152 68.8321 16.4341 68.9986 16.1289 68.9981C15.9898 68.9981 15.8531 68.9628 15.7314 68.8956C15.3274 68.6755 15.1781 68.1698 15.3982 67.7657C15.4816 67.6193 15.5646 67.4748 15.6598 67.3332L16.2787 66.4052C16.9968 65.3371 17.1766 63.9957 16.7665 62.7763L16.0655 60.6638H14.1658C13.9208 60.6638 13.6885 60.5559 13.5302 60.3692C13.372 60.1824 13.304 59.9355 13.3439 59.6938L13.6942 57.5841C11.3075 56.6524 9.03673 54.6115 7.111 51.606C4.81177 48.0849 3.50652 44.008 3.33319 39.8063C3.35069 32.2689 9.58276 25.6662 16.677 25.6662ZM44.997 33.1657C44.997 26.5068 39.5457 20.6666 33.3311 20.6666C28.8571 20.6666 24.6965 23.6054 22.7292 28.1567C22.0327 29.7353 21.6705 31.4405 21.6653 33.1657C21.6669 33.7788 21.7072 34.3908 21.7861 34.9991C21.8825 35.7265 22.0217 36.4479 22.2027 37.1595C23.1337 40.9817 25.0814 44.4808 27.8387 47.2862C28.8791 48.3229 30.1473 49.1017 31.5421 49.561C32.4112 49.8308 33.3303 49.9004 34.2303 49.7645C34.5334 49.7185 34.8325 49.6501 35.1258 49.5602C40.593 47.9148 44.997 39.2484 44.997 33.1657ZM34.8475 52.331L34.6892 51.3753C34.64 51.3842 34.5916 51.3871 34.5428 51.3952C34.4935 51.4038 34.4211 51.4111 34.3601 51.4192C34.0236 51.4684 33.6843 51.4945 33.3441 51.4977H33.3177C32.9779 51.4949 32.639 51.4689 32.3025 51.4204C32.2419 51.4119 32.1801 51.4062 32.1194 51.396C32.0584 51.3863 32.0218 51.3854 31.9726 51.3761L31.8143 52.331H34.8475ZM15.1488 58.9972H18.182L18.0237 58.0415C17.9298 58.0582 17.8354 58.0663 17.7422 58.0797C17.6637 58.0907 17.5864 58.1021 17.5078 58.1115C17.2283 58.144 16.9472 58.1615 16.6656 58.1639H16.6428C16.1961 58.1627 15.7497 58.1224 15.3099 58.0439L15.1488 58.9972ZM8.51105 50.706C10.3916 53.6375 12.6575 55.5701 14.9213 56.2358C15.1834 56.3139 15.4503 56.3745 15.7204 56.4172L15.8323 56.4331C16.3877 56.512 16.9516 56.512 17.507 56.4331C17.577 56.4233 17.6445 56.4067 17.7137 56.394C17.9416 56.3554 18.1674 56.3041 18.3895 56.2407C21.7719 55.2723 24.5699 51.6462 26.2605 48.0747C26.2108 48.0247 26.1632 47.9681 26.1148 47.9173C26.0107 47.8078 25.9081 47.6963 25.8056 47.584C25.6839 47.4494 25.5635 47.3126 25.4439 47.1731C25.3426 47.0539 25.2433 46.933 25.144 46.8098C25.0272 46.6665 24.9125 46.5205 24.799 46.3715C24.7013 46.243 24.6045 46.1132 24.5093 45.9814C24.3978 45.83 24.2896 45.6762 24.1842 45.5208C24.0898 45.3841 23.9974 45.2465 23.9059 45.1041C23.8017 44.9459 23.7 44.7847 23.5991 44.6224C23.51 44.4792 23.4217 44.3347 23.3351 44.1883C23.2374 44.0215 23.1426 43.855 23.049 43.6882C22.966 43.5373 22.8826 43.3875 22.7992 43.2358C22.7085 43.069 22.621 42.894 22.5343 42.7227C22.4558 42.5677 22.3785 42.4135 22.3032 42.2577C22.2202 42.0819 22.1368 41.9049 22.0583 41.7283C21.9875 41.5709 21.9159 41.4142 21.8475 41.2559C21.771 41.0769 21.6986 40.8959 21.625 40.7152C21.5619 40.5561 21.4968 40.3978 21.4362 40.2383C21.367 40.0553 21.3027 39.8718 21.2376 39.6879C21.1811 39.5288 21.1237 39.3693 21.0708 39.2094C21.0094 39.0226 20.9536 38.8371 20.8967 38.6495C20.8487 38.4921 20.7994 38.3346 20.7543 38.1771C20.701 37.9879 20.6542 37.7987 20.6062 37.6087C20.5667 37.4545 20.5228 37.3003 20.4894 37.1461C20.4442 36.952 20.406 36.7604 20.3677 36.568C20.3376 36.4194 20.3043 36.2705 20.2778 36.1228C20.242 35.9214 20.2143 35.7229 20.185 35.5239C20.1651 35.3872 20.1403 35.2497 20.1236 35.1138C20.0959 34.8941 20.0784 34.6772 20.0601 34.4608C20.0504 34.3489 20.0361 34.2358 20.0284 34.1271C20.0077 33.8024 19.9963 33.4806 19.9963 33.1649C19.9963 32.7124 20.0227 32.2608 20.0671 31.8116C20.0821 31.6631 20.1086 31.5158 20.1277 31.3681C20.1676 31.0666 20.2111 30.7659 20.2701 30.4669C20.3043 30.2944 20.3478 30.1227 20.3885 29.951C20.4544 29.6759 20.5252 29.4025 20.607 29.1303C20.6603 28.955 20.7176 28.78 20.7779 28.6059C20.8202 28.4818 20.8527 28.356 20.8987 28.2336C19.5747 27.6403 18.1405 27.3332 16.6896 27.3328H16.6778C10.471 27.3328 5.01195 33.16 4.99974 39.8087C5.16859 43.6907 6.38148 47.4555 8.51105 50.706Z" fill="white"/>
</g>
<defs>
<clipPath id="clip0">
<rect width="50" height="50" fill="white" transform="matrix(-1 0 0 1 99 0)"/>
</clipPath>
<clipPath id="clip1">
<rect width="50" height="50" fill="white" transform="matrix(-1 0 0 1 50 19)"/>
</clipPath>
</defs>
</svg>
