<svg width="1137" height="54" viewBox="0 0 1137 54" fill="none" xmlns="http://www.w3.org/2000/svg">
<path opacity="0.25" d="M850.718 51.9692C850.718 55.3742 848.275 58.21 845.046 58.816C844.059 61.4645 841.507 63.3473 838.517 63.3473C835.471 63.3473 832.882 61.3929 831.938 58.6679C829.023 57.8345 826.889 55.1521 826.889 51.9692C826.889 48.1204 830.01 45 833.858 45C835.792 45 837.542 45.788 838.805 47.0624C840.065 45.788 841.814 45 843.749 45C847.597 45 850.718 48.1204 850.718 51.9692Z" fill="white"/>
<path opacity="0.25" d="M832.011 4.28715C832.011 10.2903 827.704 15.29 822.011 16.3584C820.271 21.0278 815.772 24.3473 810.501 24.3473C805.13 24.3473 800.566 20.9016 798.902 16.0973C793.761 14.6278 790 9.89867 790 4.28715C790 -2.49856 795.501 -8 802.287 -8C805.697 -8 808.781 -6.61077 811.008 -4.36395C813.23 -6.61077 816.314 -8 819.724 -8C826.51 -8 832.011 -2.49856 832.011 4.28715Z" fill="white"/>
<path opacity="0.25" d="M335.571 29.3039C335.619 26.1696 337.908 23.5934 340.887 23.0805C341.833 20.6571 344.207 18.9589 346.959 19.0008C349.763 19.0426 352.119 20.8781 352.95 23.3988C355.622 24.2069 357.549 26.7055 357.504 29.6358C357.451 33.178 354.536 36.0068 350.994 35.9539C349.213 35.9266 347.613 35.1774 346.469 33.987C345.292 35.1424 343.67 35.8438 341.889 35.8165C338.347 35.7628 335.518 32.8469 335.571 29.3039Z" fill="white"/>
<path opacity="0.25" d="M95.9207 45.442C95.9459 43.7867 97.1547 42.426 98.7285 42.1552C99.2279 40.8752 100.482 39.9783 101.935 40.0004C103.416 40.0225 104.66 40.9919 105.099 42.3233C106.511 42.7501 107.528 44.0697 107.505 45.6174C107.476 47.4882 105.937 48.9822 104.066 48.9543C103.126 48.9398 102.281 48.5441 101.676 47.9154C101.055 48.5257 100.198 48.8961 99.2576 48.8817C97.3868 48.8533 95.8928 47.3133 95.9207 45.442Z" fill="white"/>
<path opacity="0.25" d="M1115 39.3039C1115.05 36.1696 1117.34 33.5934 1120.32 33.0805C1121.26 30.6571 1123.64 28.9589 1126.39 29.0008C1129.19 29.0426 1131.55 30.8781 1132.38 33.3988C1135.05 34.2069 1136.98 36.7055 1136.93 39.6358C1136.88 43.178 1133.97 46.0068 1130.42 45.9539C1128.64 45.9266 1127.04 45.1774 1125.9 43.987C1124.72 45.1424 1123.1 45.8438 1121.32 45.8165C1117.77 45.7628 1114.95 42.8469 1115 39.3039Z" fill="white"/>
<path opacity="0.25" d="M0.000790589 19.3927C0.0500032 16.1062 2.44974 13.4049 5.5743 12.8671C6.56571 10.3259 9.05502 8.54533 11.9407 8.58917C14.8809 8.63301 17.3523 10.5577 18.2229 13.2008C21.0253 14.0482 23.0457 16.6681 22.9992 19.7408C22.9428 23.455 19.8862 26.4212 16.1711 26.3657C14.3046 26.337 12.627 25.5514 11.4262 24.3032C10.1914 25.5147 8.49217 26.2502 6.62477 26.2216C2.90967 26.1652 -0.0555803 23.1078 0.000790589 19.3927Z" fill="white"/>
</svg>
