<svg width="161" height="48" viewBox="0 0 161 48" fill="none" xmlns="http://www.w3.org/2000/svg">
<path d="M28.4395 14.6349C28.2215 14.0317 28.1836 13.2977 28.2962 12.6643C28.5888 11.0145 28.9952 9.38196 29.3863 7.7506C29.6386 6.697 29.3626 5.96295 28.2843 5.52414C26.8293 4.9325 26.2285 4.58747 25.9205 4.41495C25.9193 4.4138 25.9169 4.41264 25.9157 4.41264C25.7949 4.36401 25.6728 4.3177 25.5508 4.27602C25.0851 4.1174 24.4962 4.30612 23.963 4.33854C24.0116 4.53652 24.0578 4.73451 24.1052 4.9325V4.93365C24.1977 5.31573 24.2901 5.69897 24.3955 6.07757C24.4595 6.13893 24.5259 6.18061 24.5792 6.2084C24.6088 6.22229 24.6372 6.23619 24.6633 6.25124C24.6716 6.25587 24.6787 6.25935 24.6846 6.26282C25.4702 6.74563 26.8921 7.19485 26.9193 7.71587C26.9987 9.17124 26.5876 10.6822 26.1669 12.1132C26.0662 12.4583 25.1574 12.8102 24.655 12.7674C22.2367 12.5648 19.8266 11.965 17.4213 12.0021C14.0041 12.0553 10.5833 12.4594 7.18509 12.8797C5.67555 13.0661 4.86035 12.8311 4.61508 11.224C4.42431 9.97591 3.95273 8.76832 3.57949 7.44957C7.34387 5.91663 11.1355 4.33507 14.9686 2.85539C14.9876 2.84844 15.0053 2.84149 15.0243 2.8357C16.0622 2.46405 16.7767 3.04758 16.8099 3.07537C16.8111 3.07653 16.8111 3.07653 16.8111 3.07653C17.9616 3.35903 18.8479 3.86384 19.5624 4.31423C20.5304 4.92439 21.1869 5.43498 21.7639 5.16637C21.9523 5.07838 22.2011 4.87576 22.3646 4.33507C22.0767 3.78858 21.9322 2.98043 21.476 2.74539C19.8574 1.90946 18.1512 1.22403 16.4378 0.583764C15.9319 0.395041 15.2162 0.364938 14.7269 0.566397C10.9056 2.13523 7.11992 3.78858 3.31408 5.3933C1.78913 6.03705 1.39338 7.13002 1.81283 8.62475C1.98464 9.23723 2.08891 9.86824 2.23228 10.4888C2.74889 12.7466 3.56646 14.8873 2.05099 17.2446C1.23105 18.5217 1.3211 20.3568 1 21.9396V28.5611C1.38983 30.4749 1.7287 32.4015 2.18133 34.3015C2.90885 37.35 5.40184 39.338 8.54178 39.2419C10.7812 39.1735 13.0076 38.7787 15.2482 38.678C16.349 38.6294 17.4628 38.9686 18.5766 39.0427C20.2887 39.1562 22.008 39.2754 23.7213 39.2419C26.661 39.1851 28.0876 37.1381 28.7369 34.7959C30.6008 28.0806 30.8603 21.3282 28.4395 14.6349ZM7.14125 14.9232C9.8416 14.621 12.5277 14.0387 15.2305 13.9657C17.4936 13.9055 19.7745 14.4335 22.0471 14.6882C22.6585 14.7577 23.2711 14.8329 23.8789 14.929C26.5757 15.3551 26.6148 15.3563 26.2925 18.2716H4.65892C4.34374 15.5901 4.68262 15.1976 7.14125 14.9232ZM22.1371 20.8385C23.4772 20.8524 24.1052 21.363 24.0282 22.8623C23.8825 25.7059 23.527 28.3932 21.1809 30.4217C18.3206 32.8947 14.1937 33.2027 10.9767 31.1603C7.78346 29.133 6.17794 25.1432 7.37941 21.8087C7.55241 21.3294 8.53586 20.8859 9.1674 20.8512C11.3523 20.7354 13.5491 20.8072 15.74 20.8072V20.8327C17.8727 20.8327 20.0055 20.8153 22.1371 20.8385ZM27.6563 21.9812C27.4051 25.9548 27.3352 29.9609 26.7274 33.8858C26.2913 36.7063 24.5768 37.7217 21.6904 37.2805C17.5445 36.6472 13.4519 36.6692 9.30603 37.2481C6.11633 37.6927 4.21577 36.2038 3.8378 32.7338C3.46219 29.2893 3.54395 25.7974 3.43612 22.3263C3.42901 22.0993 3.44441 21.8168 3.57238 21.6536C3.82239 21.334 4.16127 21.0816 4.46223 20.8014C4.63404 21.1661 4.92196 21.5216 4.95514 21.8979C5.12102 23.7828 4.91722 25.7511 5.40303 27.5445C6.42203 31.3039 9.1437 33.7492 12.9365 34.6789C17.2329 35.7314 21.0482 34.6859 23.8742 31.114C25.8008 28.6803 26.6433 25.9004 26.5828 22.8392C26.5686 22.1213 26.5805 21.4023 26.5805 20.6833C26.8056 20.6579 27.0307 20.6312 27.2547 20.6058C27.3968 21.0643 27.6848 21.532 27.6563 21.9812Z" fill="#365278"/>
<path d="M27.2558 20.6055C27.3968 21.064 27.6859 21.5329 27.6575 21.9809C27.4063 25.9545 27.3364 29.9606 26.7285 33.8855C26.2925 36.7071 24.5768 37.7214 21.6904 37.2802C17.5457 36.6469 13.4531 36.6701 9.30719 37.2478C6.11748 37.6924 4.21693 36.2046 3.83895 32.7347C3.46334 29.2902 3.5451 25.7982 3.43728 22.326C3.43017 22.099 3.44439 21.8165 3.57354 21.6533C3.82355 21.3349 4.16243 21.0813 4.46339 20.8011C4.63401 21.1658 4.92312 21.5213 4.9563 21.8987C5.121 23.7837 4.9172 25.7519 5.40418 27.5454C6.42318 31.3036 9.14486 33.7501 12.9377 34.6798C17.2341 35.7322 21.0494 34.6867 23.8753 31.1149C25.8008 28.6812 26.6444 25.9013 26.584 22.84C26.5698 22.1222 26.5816 21.4032 26.5816 20.6842C26.8056 20.6576 27.0307 20.6309 27.2558 20.6055Z" fill="#D3E6FA"/>
<path d="M4.65878 18.2713C4.34478 15.5898 4.68247 15.1973 7.13992 14.9229C9.84027 14.6207 12.5264 14.0384 15.2291 13.9666C17.4934 13.9052 19.7732 14.4343 22.0458 14.6891C22.6572 14.7574 23.2697 14.8326 23.8776 14.9299C26.5744 15.3571 26.6135 15.3571 26.2912 18.2725H4.65878V18.2713Z" fill="#D3E6FA"/>
<path d="M17.1737 6.94247H18.2757C18.5174 6.94247 18.7129 7.13351 18.7129 7.3697V8.15122C18.7129 8.38742 18.5174 8.57845 18.2757 8.57845H17.1737C16.932 8.57845 16.7365 8.76949 16.7365 9.00569V10.365C16.7365 10.6011 16.541 10.7922 16.2993 10.7922H15.3478C15.1061 10.7922 14.9106 10.6011 14.9106 10.365V9.00684C14.9106 8.77065 14.7151 8.57961 14.4734 8.57961H13.3655C13.1238 8.57961 12.9283 8.38857 12.9283 8.15238V7.37086C12.9283 7.13467 13.1238 6.94363 13.3655 6.94363H14.4734C14.7151 6.94363 14.9106 6.75259 14.9106 6.5164V5.21849C14.9106 4.9823 15.1061 4.79126 15.3478 4.79126H16.2993C16.541 4.79126 16.7365 4.9823 16.7365 5.21849V6.5164C16.7365 6.75143 16.932 6.94247 17.1737 6.94247Z" fill="#365278"/>
<path d="M20.9277 5.18595C21.5363 5.48276 22.2704 5.22994 22.5672 4.62128C22.864 4.01262 22.6112 3.2786 22.0025 2.98179L20.9277 5.18595ZM16.2106 1.5216L16.748 0.419525L16.2106 1.5216ZM5.53919 13.511L4.06593 7.59887L1.68645 8.19182L3.1597 14.1039L5.53919 13.511ZM3.90239 7.93281L15.9163 2.62829L14.9258 0.384977L2.9119 5.6895L3.90239 7.93281ZM15.6732 2.62368L20.9277 5.18595L22.0025 2.98179L16.748 0.419525L15.6732 2.62368ZM15.9163 2.62829C15.8386 2.66264 15.7496 2.66095 15.6732 2.62368L16.748 0.419525C16.1753 0.140276 15.5087 0.127636 14.9258 0.384977L15.9163 2.62829ZM4.06593 7.59887C4.09989 7.73514 4.03087 7.87609 3.90239 7.93281L2.9119 5.6895C1.9492 6.11456 1.43199 7.17068 1.68645 8.19182L4.06593 7.59887Z" fill="#34517C"/>
<path d="M24.4365 4.90405L28.3588 7.01278L27.0514 13.9247" stroke="#34517C" stroke-width="2.21871" stroke-linecap="round" stroke-linejoin="round"/>
<path d="M10.5088 26.1845H11.4813L11.8054 25.549L12.3457 27.0319L13.9665 23.4304L14.5068 28.9386H15.1551L15.9115 26.3964H16.6678L16.992 25.443L17.2081 25.8667L17.6403 24.8075L18.5047 26.1845H21.2061" stroke="#30517A" stroke-width="0.636949" stroke-linecap="round" stroke-linejoin="round"/>
<path d="M2.86341 19.2554C-0.0872976 19.2554 1.63627 36.1252 3.35963 33.665" stroke="#34517C" stroke-width="1.16774"/>
<path d="M58.5619 16.2305C57.5187 15.107 56.5022 14.358 55.5124 13.9835C54.5494 13.609 53.573 13.4218 52.5833 13.4218C51.112 13.4218 49.7745 13.6893 48.5708 14.2243C47.3938 14.7325 46.3773 15.4548 45.5213 16.391C44.6653 17.3005 43.9965 18.3705 43.515 19.601C43.0603 20.8315 42.8329 22.1556 42.8329 23.5734C42.8329 25.0981 43.0603 26.5025 43.515 27.7865C43.9965 29.0705 44.6653 30.1806 45.5213 31.1169C46.3773 32.0531 47.3938 32.7888 48.5708 33.3238C49.7745 33.8588 51.112 34.1263 52.5833 34.1263C53.7335 34.1263 54.8437 33.8588 55.9137 33.3238C57.0104 32.762 58.0269 31.8793 58.9632 30.6755L63.1362 33.6448C61.8522 35.4103 60.2873 36.6943 58.4415 37.4968C56.5958 38.2993 54.6297 38.7005 52.5432 38.7005C50.3497 38.7005 48.33 38.3528 46.4843 37.6573C44.6653 36.935 43.087 35.9319 41.7495 34.6479C40.4388 33.3371 39.4089 31.7723 38.6599 29.9533C37.9109 28.1343 37.5364 26.1146 37.5364 23.8944C37.5364 21.6206 37.9109 19.5609 38.6599 17.7151C39.4089 15.8426 40.4388 14.251 41.7495 12.9403C43.087 11.6295 44.6653 10.6264 46.4843 9.93089C48.33 9.20865 50.3497 8.84752 52.5432 8.84752C54.4692 8.84752 56.248 9.19527 57.8798 9.89077C59.5383 10.5595 61.0764 11.7098 62.4942 13.3415L58.5619 16.2305ZM66.1684 7.64377H70.9834V37.9783H66.1684V7.64377ZM88.5488 35.33H88.4284C87.7329 36.4268 86.8502 37.2293 85.7802 37.7375C84.7102 38.219 83.5332 38.4598 82.2492 38.4598C81.3664 38.4598 80.497 38.3394 79.641 38.0986C78.8118 37.8579 78.0628 37.4968 77.394 37.0153C76.752 36.5338 76.2304 35.9319 75.8292 35.2096C75.4279 34.4874 75.2273 33.6448 75.2273 32.6818C75.2273 31.6385 75.4145 30.7558 75.789 30.0335C76.1635 29.2845 76.6584 28.6693 77.2737 28.1878C77.9157 27.6795 78.6513 27.2783 79.4805 26.984C80.3098 26.6898 81.1658 26.4758 82.0485 26.342C82.958 26.1815 83.8675 26.0879 84.777 26.0611C85.6865 26.0076 86.5425 25.9809 87.345 25.9809H88.5488V25.4593C88.5488 24.2555 88.1342 23.3594 87.3049 22.7709C86.4757 22.1556 85.419 21.848 84.135 21.848C83.1185 21.848 82.1689 22.0353 81.2862 22.4098C80.4034 22.7575 79.641 23.239 78.999 23.8543L76.4712 21.3264C77.5412 20.2296 78.785 19.4405 80.2028 18.959C81.6473 18.4775 83.1319 18.2368 84.6567 18.2368C86.0209 18.2368 87.1712 18.3973 88.1074 18.7183C89.0437 19.0125 89.8194 19.4004 90.4347 19.8819C91.0499 20.3634 91.518 20.9251 91.839 21.5671C92.1868 22.1824 92.4275 22.811 92.5613 23.453C92.7218 24.095 92.8154 24.7236 92.8422 25.3389C92.8689 25.9274 92.8823 26.449 92.8823 26.9038V37.9783H88.5488V35.33ZM88.2679 29.3514H87.2648C86.596 29.3514 85.847 29.3781 85.0178 29.4316C84.1885 29.4851 83.3994 29.6189 82.6504 29.8329C81.9282 30.0201 81.3129 30.3144 80.8047 30.7156C80.2964 31.0901 80.0423 31.6251 80.0423 32.3206C80.0423 32.7754 80.1359 33.1633 80.3232 33.4843C80.5372 33.7785 80.8047 34.0326 81.1257 34.2466C81.4467 34.4606 81.8078 34.6211 82.209 34.7281C82.6103 34.8084 83.0115 34.8485 83.4128 34.8485C85.0713 34.8485 86.2884 34.4606 87.0642 33.6849C87.8667 32.8824 88.2679 31.799 88.2679 30.4348V29.3514ZM99.7882 22.811H95.8158V18.7183H99.7882V15.9898C99.7882 14.6523 99.8818 13.4485 100.069 12.3785C100.256 11.2818 100.604 10.3455 101.112 9.56977C101.647 8.79402 102.383 8.20552 103.319 7.80427C104.255 7.37627 105.473 7.16227 106.971 7.16227C108.067 7.16227 109.084 7.2559 110.02 7.44314L109.699 11.5359C109.351 11.4556 109.017 11.3888 108.696 11.3353C108.375 11.2818 108.041 11.255 107.693 11.255C107.024 11.255 106.489 11.362 106.088 11.576C105.687 11.79 105.366 12.0843 105.125 12.4588C104.911 12.8065 104.764 13.2211 104.683 13.7026C104.63 14.1841 104.603 14.6924 104.603 15.2274V18.7183H109.057V22.811H104.603V37.9783H99.7882V22.811ZM112.187 18.7183H117.002V37.9783H112.187V18.7183ZM111.545 12.1779C111.545 11.4021 111.826 10.7334 112.387 10.1716C112.976 9.58315 113.712 9.2889 114.594 9.2889C115.477 9.2889 116.213 9.56977 116.801 10.1315C117.416 10.6665 117.724 11.3486 117.724 12.1779C117.724 13.0071 117.416 13.7026 116.801 14.2644C116.213 14.7994 115.477 15.0669 114.594 15.0669C113.712 15.0669 112.976 14.786 112.387 14.2243C111.826 13.6358 111.545 12.9536 111.545 12.1779ZM119.24 18.7183H124.536L129.913 32.0799H129.993L134.808 18.7183H139.824L130.715 42.1111C130.368 43.0206 129.98 43.8098 129.552 44.4785C129.151 45.174 128.669 45.7491 128.107 46.2039C127.546 46.6854 126.877 47.0331 126.101 47.2471C125.352 47.4879 124.443 47.6083 123.373 47.6083C122.115 47.6083 120.885 47.4478 119.681 47.1268L120.283 42.7933C120.657 42.927 121.045 43.034 121.447 43.1143C121.875 43.2213 122.303 43.2748 122.731 43.2748C123.319 43.2748 123.814 43.2213 124.215 43.1143C124.616 43.0073 124.951 42.8334 125.218 42.5926C125.513 42.3786 125.753 42.0844 125.941 41.7099C126.128 41.3621 126.328 40.9341 126.542 40.4259L127.465 38.1388L119.24 18.7183ZM154.692 35.33H154.572C153.876 36.4268 152.994 37.2293 151.924 37.7375C150.854 38.219 149.677 38.4598 148.393 38.4598C147.51 38.4598 146.641 38.3394 145.785 38.0986C144.955 37.8579 144.206 37.4968 143.538 37.0153C142.896 36.5338 142.374 35.9319 141.973 35.2096C141.571 34.4874 141.371 33.6448 141.371 32.6818C141.371 31.6385 141.558 30.7558 141.933 30.0335C142.307 29.2845 142.802 28.6693 143.417 28.1878C144.059 27.6795 144.795 27.2783 145.624 26.984C146.453 26.6898 147.309 26.4758 148.192 26.342C149.102 26.1815 150.011 26.0879 150.921 26.0611C151.83 26.0076 152.686 25.9809 153.489 25.9809H154.692V25.4593C154.692 24.2555 154.278 23.3594 153.448 22.7709C152.619 22.1556 151.563 21.848 150.279 21.848C149.262 21.848 148.312 22.0353 147.43 22.4098C146.547 22.7575 145.785 23.239 145.143 23.8543L142.615 21.3264C143.685 20.2296 144.929 19.4405 146.346 18.959C147.791 18.4775 149.275 18.2368 150.8 18.2368C152.164 18.2368 153.315 18.3973 154.251 18.7183C155.187 19.0125 155.963 19.4004 156.578 19.8819C157.193 20.3634 157.662 20.9251 157.983 21.5671C158.33 22.1824 158.571 22.811 158.705 23.453C158.865 24.095 158.959 24.7236 158.986 25.3389C159.012 25.9274 159.026 26.449 159.026 26.9038V37.9783H154.692V35.33ZM154.411 29.3514H153.408C152.74 29.3514 151.991 29.3781 151.161 29.4316C150.332 29.4851 149.543 29.6189 148.794 29.8329C148.072 30.0201 147.456 30.3144 146.948 30.7156C146.44 31.0901 146.186 31.6251 146.186 32.3206C146.186 32.7754 146.279 33.1633 146.467 33.4843C146.681 33.7785 146.948 34.0326 147.269 34.2466C147.59 34.4606 147.951 34.6211 148.353 34.7281C148.754 34.8084 149.155 34.8485 149.556 34.8485C151.215 34.8485 152.432 34.4606 153.208 33.6849C154.01 32.8824 154.411 31.799 154.411 30.4348V29.3514Z" fill="#31517A"/>
</svg>
